# xmcd CD database file
#
# Track frame offsets:
#	150
#	21880
#	35795
#	51090
#	78655
#	93310
#	116250
#	154660
#	210165
#
# Disc length: 3546 seconds
#
# Revision: 2
# Processed by: cddbd v1.5.2PL0 Copyright (c) Steve Scherf et al.
# Submitted via: CDex 1.70beta2
#
DISCID=680dd809
DTITLE=Vari - N. E. M. 10
DYEAR=1900
DGENRE=New Age
TTITLE0=Paul Brandenberg - Jazzy Mind
TTITLE1=Destination New Age - Sea Vision
TTITLE2=Greg Joy - Toye for Nishka
TTITLE3=Eventyr - Two little sisters
TTITLE4=John Sposito - May be tomorrow
TTITLE5=Premartha - Forests
TTITLE6=Gandalf - Secret of the ancient tree
TTITLE7=Chris Spheeris - Prism
TTITLE8=Stuart Goodstein - Daybreak by the sea
EXTD=
EXTT0=
EXTT1=
EXTT2=
EXTT3=
EXTT4=
EXTT5=
EXTT6=
EXTT7=
EXTT8=
PLAYORDER=
